<?xml version="1.0" encoding="iso-8859-1"?>
<!-- Generator: Adobe Illustrator 19.0.0, SVG Export Plug-In . SVG Version: 6.00 Build 0)  -->
<svg version="1.1" id="Capa_1" xmlns="http://www.w3.org/2000/svg" xmlns:xlink="http://www.w3.org/1999/xlink" x="0px" y="0px"
	 viewBox="0 0 489.8 489.8" style="enable-background:new 0 0 489.8 489.8;" xml:space="preserve">
<g>
	<g>
		<path d="M438.2 0H51.6C23.1 0 0 23.2 0 51.6V438.2C0 466.7 23.2 489.8 51.6 489.8H438.2C466.7 489.8 489.8 466.6 489.8 438.2V51.6C489.8 23.2 466.6 0 438.2 0ZM465.3 438.2C465.3 453.1 453.1 465.3 438.2 465.3H51.6C36.7 465.3 24.5 453.1 24.5 438.2V51.6C24.5 36.7 36.7 24.5 51.6 24.5H438.2C453.1 24.5 465.3 36.7 465.3 51.6V438.2V438.2Z" fill="black"/>
		<path d="M342.112 319.363L267.553 244.804L342.115 170.242C348.429 163.928 348.429 153.714 342.115 147.4C335.802 141.086 325.588 141.087 319.274 147.401L244.712 221.963L170.153 147.404C163.839 141.09 153.625 141.09 147.404 147.311C141.09 153.625 141.09 163.839 147.404 170.153L221.963 244.712L147.401 319.274C141.087 325.588 141.086 335.802 147.4 342.115C153.714 348.429 163.928 348.429 170.242 342.115L244.804 267.553L319.363 342.112C325.677 348.426 335.89 348.426 342.204 342.112C348.519 335.798 348.426 325.677 342.112 319.363Z" fill="black"/>
	</g>
</g>
</svg>
