<?xml version="1.0" encoding="iso-8859-1"?>
<!-- Generator: Adobe Illustrator 19.0.0, SVG Export Plug-In . SVG Version: 6.00 Build 0)  -->
<svg version="1.1" id="Capa_1" xmlns="http://www.w3.org/2000/svg" xmlns:xlink="http://www.w3.org/1999/xlink" x="0px" y="0px"
	 viewBox="0 0 489.8 489.8" style="enable-background:new 0 0 489.8 489.8;" xml:space="preserve">
<g>
	<g>
		<path d="M438.2 0H51.6C23.1 0 0 23.2 0 51.6V438.2C0 466.7 23.2 489.8 51.6 489.8H438.2C466.7 489.8 489.8 466.6 489.8 438.2V51.6C489.8 23.2 466.6 0 438.2 0ZM465.3 438.2C465.3 453.1 453.1 465.3 438.2 465.3H51.6C36.7 465.3 24.5 453.1 24.5 438.2V51.6C24.5 36.7 36.7 24.5 51.6 24.5H438.2C453.1 24.5 465.3 36.7 465.3 51.6V438.2V438.2Z" fill="black"/>
		<path d="M337.4 232.7H257.1C244.8 232.7 251.6 232.7 244.8 232.7C238 232.7 244.8 232.7 232.5 232.7L152.2 232.7C145.4 232.7 139.9 238.2 139.9 244.9C139.9 251.7 145.4 257.2 152.2 257.2H232.5C241 257.2 238 257.2 244.8 257.2C251.6 257.2 249 257.2 257.1 257.2H337.4C344.2 257.2 349.7 251.7 349.7 244.9C349.7 238.1 344.2 232.7 337.4 232.7Z" fill="black"/>
	</g>
</g>
</svg>
